<?xml version="1.0" encoding="UTF-8" standalone="no"?>
<svg width="63px" height="87px" viewBox="0 0 63 87" version="1.1" xmlns="http://www.w3.org/2000/svg" xmlns:xlink="http://www.w3.org/1999/xlink">
    <!-- Generator: Sketch 3.8.3 (29802) - http://www.bohemiancoding.com/sketch -->
    <title>Shape</title>
    <desc>Created with Sketch.</desc>
    <defs></defs>
    <g id="Page-1" stroke="none" stroke-width="1" fill="none" fill-rule="evenodd">
        <g id="spicy" fill="#ffffff">
            <path d="M46.1955261,25.8072357 C27.0261955,13.0886726 35.6949348,0.7212353 35.6949348,0.7212353 C17.0721817,11.4464989 12.9508628,27.8112946 17.5123748,48.5005551 C10.7920112,43.0597478 9.8269748,36.6156369 10.0382842,28.1815015 C1.489395,37.322775 -0.0413514,47.0645963 0.5193671,57.479498 C1.4095306,73.9958115 15.4491425,87.141983 32.077713,86.9988403 C48.2303696,86.859909 61.8939972,73.4350891 62.6742935,57.128479 C63.3332367,43.3958473 57.5346451,33.329525 46.1955261,25.8072357 L46.1955261,25.8072357 Z M32.2815323,77.3143158 C29.3689041,77.3143158 26.5953102,76.7444992 24.0387955,75.7428589 C20.6886215,74.4300766 17.7368889,72.3452683 15.3859139,69.7022324 C15.4940644,69.6905899 15.5996705,69.6664582 15.7087021,69.6531525 C25.419796,68.4542923 33.2257729,61.1175232 35.1034317,51.6327134 C35.3871193,53.0620156 35.5418587,54.5386887 35.5418587,56.0511323 C35.5418587,60.1624681 34.4287377,64.0068055 32.5119782,67.3295213 C39.2880288,63.4204026 43.861084,56.1159745 43.861084,47.7310258 C43.861084,42.0431329 41.7480927,36.861889 38.2838936,32.8869897 C47.8635407,35.5191575 54.9107437,44.2685395 54.9107437,54.6850549 C54.9107437,67.1823273 44.7787552,77.3143158 32.2815323,77.3143158 L32.2815323,77.3143158 Z" id="Shape"></path>
        </g>
    </g>
</svg>
