<?xml version="1.0" encoding="UTF-8" standalone="no"?>
<svg width="100px" height="96px" viewBox="0 0 100 96" version="1.1" xmlns="http://www.w3.org/2000/svg" xmlns:xlink="http://www.w3.org/1999/xlink">
    <!-- Generator: Sketch 3.8.3 (29802) - http://www.bohemiancoding.com/sketch -->
    <title>noun_15361_cc</title>
    <desc>Created with Sketch.</desc>
    <defs></defs>
    <g id="Page-1" stroke="none" stroke-width="1" fill="none" fill-rule="evenodd">
        <g id="noun_15361_cc" fill="#000000">
            <path d="M49.996,7.56 L60.012,38.396 L92.44,38.396 L66.201,57.452 L76.226,88.284 L49.996,69.223 L23.765,88.284 L33.782,57.452 L7.559,38.392 L39.97,38.392 L49.996,7.56 L49.996,7.56 Z M49.996,0 C46.724,0 43.816,2.109 42.809,5.225 L34.485,30.831 L7.559,30.831 C4.287,30.831 1.379,32.94 0.372,36.057 C-0.644,39.168 0.468,42.579 3.115,44.506 L24.902,60.339 L16.578,85.949 C15.562,89.06 16.674,92.476 19.321,94.398 C20.649,95.362 22.211,95.843 23.765,95.843 C25.327,95.843 26.89,95.362 28.209,94.398 L49.996,78.566 L71.783,94.398 C73.102,95.362 74.665,95.843 76.227,95.843 C77.781,95.843 79.343,95.362 80.671,94.398 C83.318,92.471 84.429,89.06 83.414,85.949 L75.09,60.339 L96.885,44.511 C99.532,42.588 100.644,39.173 99.628,36.061 C98.612,32.945 95.713,30.835 92.44,30.835 L65.507,30.835 L57.183,5.225 C56.167,2.109 53.268,0 49.996,0 L49.996,0 L49.996,0 Z" id="Shape"></path>
        </g>
    </g>
</svg>