<?xml version="1.0" encoding="UTF-8" standalone="no"?>
<svg width="89px" height="67px" viewBox="0 0 89 67" version="1.1" xmlns="http://www.w3.org/2000/svg" xmlns:xlink="http://www.w3.org/1999/xlink">
    <!-- Generator: Sketch 3.8.3 (29802) - http://www.bohemiancoding.com/sketch -->
    <title>noun_436993_cc</title>
    <desc>Created with Sketch.</desc>
    <defs></defs>
    <g id="Page-1" stroke="none" stroke-width="1" fill="none" fill-rule="evenodd">
        <g id="noun_436993_cc" fill="#000000">
            <path d="M29,13.3 C30.1,12.9 30.7,12.5 31.3,12.1 C31.7,11.8 32.1,11.6 32.6,11.3 C32.9,11.2 33.3,11.2 33.6,11.3 C33.9,11.4 34.1,11.7 34.2,12 C36.3,11.2 45.3,8.6 54.1,15.2 C54.5,15 55,15 55.6,15.1 L56.2,15.2 L56.4,15.7 C56.6,16.6 57.8,17.5 59.1,18.6 C60.1,19.5 61.3,20.4 62.5,21.7 C64.5,23.8 66.8,27.5 68,31.8 C69.1,30.8 69.8,29.7 70,28.6 C70.1,27.9 70,27.3 69.7,26.5 C69.5,25.8 69.3,25 69.2,23.9 C69.1,22.8 69.4,21.7 69.6,20.6 C69.8,19.6 70.1,18.4 69.9,17.8 C69.7,17.3 69.1,16.8 68.3,16.1 C67.4,15.4 66.3,14.4 65.3,13.1 C64,11.4 63.7,9.3 63.4,7.7 C63.3,6.8 63.1,6 62.9,5.6 C62.1,4.4 60,3.2 57.6,3.3 C55.6,3.4 54.4,2.8 53.2,2.1 C52.5,1.7 51.7,1.3 50.7,1 C47.5,-0.1 41.2,1.2 39.3,1.6 C36.7,2.2 35.9,3.2 35.2,4.3 C35,4.5 34.9,4.7 34.7,5 C33.5,6.4 30.6,8.5 27.2,8.5 C25.2,8.5 21.9,14.4 20.6,16.6 C20.4,17 20.1,17.4 20,17.7 C19.5,18.5 19.5,19.3 19.6,19.9 C23.1,15.5 27.1,14 29,13.3 L29,13.3 Z" id="Shape"></path>
            <path d="M35.8,13.7 C35.9,13.8 36,13.8 36.1,13.9 C36.6,14.3 37.2,14.7 37.6,15.2 C37.9,15.5 38.2,15.5 38.9,15.5 C39.6,15.4 40.6,15.3 41.6,16 C42.7,16.8 43,18.3 43.3,19.7 C43.5,20.6 43.6,21.5 44,22 C44.3,22.4 44.8,22.5 45.3,22.7 C45.6,22.8 46.1,22.9 46.5,23.1 C46.6,23 46.8,22.8 47,22.7 C47.8,22.3 48.5,22 49.1,21.7 C50,21.3 50.9,21 51.6,20.3 C52.4,19.5 52.4,19.3 52.4,18.7 L52.4,17.8 C52.5,17.4 52.6,17.1 52.7,16.8 C45.8,11.5 38.5,12.9 35.8,13.7 L35.8,13.7 Z" id="Shape"></path>
            <path d="M16.1,30.2 L16.1,30 C16,22.7 10.4,18.9 10.3,18.9 C9.8,18.6 9.7,18 10,17.5 C10.3,17 10.9,16.9 11.4,17.2 C11.6,17.3 15.4,19.9 17.1,24.9 C17.4,24 17.8,23.2 18.2,22.3 C17.8,21.6 16.8,19.4 18.2,17 C18.4,16.7 18.6,16.3 18.8,15.9 C21.4,11.3 24.2,6.7 27.1,6.7 C29.6,6.7 32.1,5.1 33.1,3.9 C33.3,3.7 33.4,3.5 33.5,3.3 C33.6,3.1 33.8,2.9 34,2.7 C33.7,2.2 33,1.6 31.8,2 C30.5,2.5 29.6,3.1 28.6,3.9 C27.6,4.7 26.4,5.6 24.5,6.3 C22.1,7.2 21,7 19.5,6.7 C18.6,6.5 17.6,6.3 16.1,6.3 C12.3,6.3 7.7,9.2 4.5,13.6 C2.8,15.9 3.6,19 4.6,21.7 C5.6,24.5 5.1,28 4.1,30.1 C3.2,32 3.2,33.7 3.7,34 C4.6,34.5 5,35.4 5.1,36.2 C6.9,35.5 8.7,35.2 9.9,34.9 L10.4,34.8 C12.2,34.4 14,35.3 15.6,36 C15.9,36.1 16.1,36.2 16.4,36.3 C16.2,35.2 15.9,32.9 16.1,30.2 L16.1,30.2 Z" id="Shape"></path>
            <path d="M68.6,41.6 C69.3,41.2 70.4,40.5 71.2,39.9 C72.8,38.9 74.5,37.7 76.1,37 C79.7,35.4 82.9,36.6 84,37.7 C84.2,37.9 84.4,38.1 84.5,38.3 L84.6,38.4 C85.7,37.4 87.3,35.6 87.3,34.1 C87.3,33.1 86.8,31.8 86.4,30.6 C86.2,30 86,29.5 85.8,29 C85.6,28.2 85.7,27.2 85.9,26 C86.1,24.6 86.3,22.9 85.9,21.7 C85.1,19.7 83.8,18.5 81.5,17.8 C81,17.6 80.5,17.5 80.1,17.4 C78.4,16.9 77,16.5 75.5,14.5 C73.7,12.1 72.3,10.5 70.4,10 C69.2,9.7 67.3,10.1 66,10.4 C66.2,11 66.5,11.7 66.9,12.2 C67.8,13.4 68.8,14.2 69.6,14.9 C70.6,15.7 71.4,16.4 71.8,17.4 C72.2,18.5 71.9,19.8 71.6,21.2 C71.4,22.2 71.2,23.2 71.2,24 C71.2,24.8 71.4,25.5 71.6,26.1 C71.9,27 72.1,28 71.9,29.1 C71.5,30.9 70.4,32.6 68.4,34.1 C68.9,36.6 69,39.1 68.6,41.6 L68.6,41.6 Z" id="Shape"></path>
            <path d="M45.1,34.3 C47.4,32.4 47.3,31.2 46.9,30.4 C46.3,29 45.6,26.9 45.7,25.2 C45.7,25.1 45.6,25 45.6,24.9 L45.6,24.8 C45.5,24.7 45.2,24.6 44.9,24.6 C44.2,24.4 43.2,24.2 42.5,23.2 C41.8,22.3 41.6,21.2 41.4,20.1 C41.2,19.1 41,18 40.5,17.7 C40.1,17.4 39.8,17.5 39.2,17.5 C38.4,17.6 37.3,17.7 36.2,16.7 C35.8,16.3 35.3,15.9 34.8,15.6 C34,15 33.3,14.4 32.8,13.7 C32.7,13.8 32.5,13.9 32.4,14 C31.8,14.4 31.1,14.9 29.7,15.4 C27.7,16.1 24,17.5 20.8,22.3 C16.9,28 18.1,34.9 18.7,37.1 C19.1,36.9 19.5,36.7 19.9,36.4 C20.9,35.8 22,35.1 23.2,35.3 L23.7,35.3 C25.7,35.5 28,35.7 29.3,37.6 C30.1,38.7 30.6,38.8 31.3,39 L31.4,39 C32.2,39.2 33.5,39.8 35,40.6 L35.6,40.9 C36.7,41.4 36.8,42.7 36.9,43.9 C36.9,44.2 37,44.8 37.1,45 C37.2,45 37.3,45 37.3,44.9 C37.8,44.7 38.7,44.4 40,44.9 C41.2,45.3 41.7,46.2 42,46.9 C42.3,47.5 42.4,47.7 42.9,47.8 C43.2,47.9 43.5,47.9 43.9,47.8 C42.8,46.3 41.2,43.7 41.3,41.4 C41.3,37.4 43.2,35.8 45.1,34.3 L45.1,34.3 Z M27,26.1 C26.8,26.2 21.4,28.2 21.3,33.9 C21.3,34.4 20.8,35 20.3,35 L20.3,35 C19.7,35 19.3,34.4 19.3,33.8 C19.4,26.7 26.3,24.2 26.3,24.2 C26.8,24 27.4,24.3 27.6,24.8 C27.8,25.3 27.5,25.9 27,26.1 L27,26.1 Z" id="Shape"></path>
            <path d="M56,48.6 C56.3,48.3 56.7,47.5 57,46.8 C57.9,45.1 58.9,43.1 60.7,42.6 C61.4,42.4 61.9,42.4 62.3,42.4 C62.4,41.7 62.5,41.1 62.5,40.5 C61.3,35.7 56.7,34.5 56.6,34.5 C56.1,34.4 55.7,33.8 55.9,33.3 C56,32.8 56.6,32.4 57.1,32.6 C57.3,32.6 60.3,33.4 62.6,36.1 C61.9,28.8 57.8,25.9 57.6,25.8 C57.1,25.5 57,24.9 57.3,24.4 C57.6,23.9 58.2,23.8 58.7,24.1 C59,24.3 65.5,28.8 64.6,40.4 L64.6,40.8 C64.5,41.4 64.5,42.1 64.3,42.7 L64.5,42.7 C65.3,42.6 65.6,42.4 65.9,42.2 C66,42.1 66.1,42.1 66.3,42 C68.2,34.4 64.2,26.5 61,23.1 C59.9,22 58.8,21 57.8,20.2 C56.4,19.1 55.3,18.2 54.7,17 C54.6,17.1 54.5,17.4 54.4,17.8 L54.4,18.4 C54.4,19.4 54.3,20.2 53,21.5 C52,22.5 50.9,22.9 49.8,23.3 C49.2,23.5 48.6,23.8 48,24.1 C47.3,24.5 47.6,26.8 48.7,29.3 C50,32.4 47.2,34.8 46.3,35.5 C44.3,37.2 43.2,38.2 43.1,40.9 C43,42.9 44.9,45.7 46,46.9 C47.2,46.8 48.5,46.7 49.9,47.2 C51.2,47.6 51.9,48.6 52.5,49.6 L52.7,49.6 C53.3,50.1 55,49.7 56,48.6 L56,48.6 Z" id="Shape"></path>
            <path d="M58.8,57.8 C57.9,56.6 56.8,55.3 55,55.2 C53,55.1 52.1,53.4 51.3,52 C50.7,50.9 50.2,49.9 49.2,49.5 C47.8,49 46.4,49.2 45.1,49.4 C44.1,49.6 43.1,49.7 42.2,49.5 C40.9,49.2 40.4,48.3 40,47.6 C39.7,47 39.5,46.7 39.1,46.6 C38.5,46.4 38.1,46.5 37.7,46.6 C37.2,46.8 36.4,47 35.6,46.4 C34.9,45.8 34.8,44.8 34.7,43.8 C34.7,43.3 34.6,42.6 34.5,42.4 L34,42.2 C33.1,41.7 31.4,40.9 30.9,40.8 L30.8,40.8 C29.9,40.6 28.8,40.4 27.6,38.6 C26.9,37.6 25.2,37.4 23.5,37.2 L23,37.2 C22.4,37.2 21.7,37.6 21,38 C19.9,38.7 18.5,39.5 16.9,39 C16.3,38.8 15.6,38.5 15,38.2 C13.6,37.6 12.2,36.9 11,37.1 L10.5,37.2 C8.4,37.6 4.4,38.4 2.7,40.5 C0.3,43.1 0.5,44 1,44.7 C1,44.8 1.1,44.8 1.1,44.9 C1.2,44.9 1.3,44.8 1.5,44.8 C2.1,44.6 3,44.3 4.3,44.4 C7.3,44.6 13.2,48.9 15.6,52.1 C17.8,55 20.3,58.1 22.6,58.8 C23,58.9 23.4,59.1 23.7,59.2 C23.6,58.6 23.6,57.9 23.6,57.2 C23.4,56.4 21.9,49.1 15.6,44.9 C15.1,44.6 15,44 15.3,43.5 C15.6,43 16.2,42.9 16.7,43.2 C20.7,45.9 23,49.6 24.2,52.5 C24.4,51.9 24.5,51.3 24.8,50.6 C26.7,45.5 24.8,41.2 24.8,41.1 C24.6,40.6 24.8,40 25.3,39.8 C25.8,39.6 26.4,39.8 26.6,40.3 C26.7,40.5 28.8,45.4 26.6,51.3 C24.8,56 25.8,60 26,60.8 C26.2,61.1 26.3,61.4 26.5,61.7 C27.1,62.8 28.7,63.8 31.4,63.2 C31.8,63 33.7,62.3 35.8,62.3 C37,62.3 38.4,62.5 39.6,63.3 C42.7,65.2 45.4,66.7 49.7,66.7 C54.3,66.7 58.2,65.3 59.6,63.9 C60.9,62.6 60.3,59.5 59.6,58.6 C59.3,58.3 59.1,58.1 58.8,57.8 L58.8,57.8 Z M31.6,53.2 C31.7,53.1 35,50.6 41.1,50.3 C41.7,50.3 42.1,50.7 42.1,51.3 C42.1,51.9 41.7,52.3 41.1,52.3 C35.6,52.5 32.7,54.7 32.7,54.7 C32.5,54.8 32.3,54.9 32.1,54.9 C31.8,54.9 31.5,54.8 31.3,54.5 C31.1,54.2 31.2,53.5 31.6,53.2 L31.6,53.2 Z M48.5,59.8 C48.3,60.2 48,60.4 47.6,60.4 C47.5,60.4 47.3,60.4 47.2,60.3 C38.9,56.8 31.7,59.5 31.7,59.5 C31.2,59.7 30.6,59.5 30.4,58.9 C30.2,58.4 30.4,57.8 31,57.6 C31.3,57.5 39,54.5 48,58.4 C48.5,58.7 48.7,59.3 48.5,59.8 L48.5,59.8 Z" id="Shape"></path>
            <path d="M88.1,44.8 C88,44.5 87.9,44 87.8,43.7 C87.4,42.3 87.1,41.1 86.5,41.1 L86.5,41.1 C85.8,41.1 85.2,41 84.7,40.8 C84.2,40.6 83.8,40.4 83.5,40.1 C83.3,39.9 83.1,39.7 82.9,39.5 C82.8,39.3 82.6,39.3 82.5,39.1 C81.9,38.5 79.6,37.6 76.8,38.8 C75.4,39.4 73.7,40.6 72.2,41.6 C69.9,43.1 68.6,43.9 67.7,43.9 L67.3,43.9 L67.3,43.9 C67.2,43.9 67.1,44 67,44.1 C66.6,44.3 66.1,44.6 64.9,44.8 C63.7,45 63.1,44.8 62.6,44.6 C62.2,44.5 62,44.4 61.2,44.6 C60.3,44.8 59.4,46.4 58.8,47.7 C58.4,48.6 57.9,49.4 57.5,49.9 C56.6,50.9 55,51.7 53.7,51.9 C54.2,52.6 54.6,53.1 55.2,53.1 C58,53.3 59.5,55.2 60.5,56.5 C60.7,56.8 60.9,57 61.1,57.2 C61.5,57.6 61.8,58.2 62,58.9 C70.4,56.9 71.7,49.9 71.8,49.5 C71.9,49 72.4,48.6 72.9,48.7 C73.4,48.8 73.8,49.3 73.7,49.8 C73.7,49.9 72.2,58.5 62.3,60.8 L62.3,61.2 C63.2,61.3 64.9,61.3 67,60.7 C70.5,59.7 73.2,56.3 74.5,54.3 C76.1,51.9 78.8,48.7 80.5,47.5 C82,46.5 85.2,46 86.5,47.5 C86.6,47.5 86.6,47.5 86.9,47.4 C87.6,47 88.3,45.4 88.1,44.8 L88.1,44.8 Z" id="Shape"></path>
        </g>
    </g>
</svg>